<?xml version="1.0" encoding="UTF-8"?>
<svg width="32px" height="32px" viewBox="0 0 32 32" version="1.1" xmlns="http://www.w3.org/2000/svg" xmlns:xlink="http://www.w3.org/1999/xlink">
    <title>Magenta - Academic Self Efficacy</title>
    <g id="Icons---Product" stroke="none" stroke-width="1" fill="none" fill-rule="evenodd">
        <g id="2.5-First-Order-Capacities" transform="translate(-156.000000, -50.000000)">
            <g id="Magenta---Academic-Self-Efficacy" transform="translate(156.000000, 50.000000)">
                <rect id="bg" x="0" y="0" width="32" height="32"></rect>
                <g id="shape" transform="translate(2.000000, 5.000000)">
                    <path d="M22.9408957,13.6843458 C22.9796985,13.7568926 23,13.8378936 23,13.9201657 L23,17.2290599 C22.9999848,18.0297177 22.6799324,18.7971556 22.1110593,19.3605705 C19.6612679,21.7868568 16.9575815,23 14,23 C11.0424194,23 8.3387337,21.7868576 5.88894284,19.3605727 C5.32005552,18.7971614 5,18.0297163 5,17.2290509 L5,13.9201657 C5,13.6440233 5.22385763,13.4201657 5.5,13.4201657 C5.58227212,13.4201657 5.66327304,13.4404672 5.73581988,13.47927 L6.73581988,14.0141355 C6.89845929,14.1011257 7,14.2705891 7,14.4550312 L7,16.7378673 C7.00000893,17.2970533 7.2341107,17.8307022 7.64554302,18.2094007 C9.66675163,20.0698002 11.784904,21 14,21 C16.2151018,21 18.3332594,20.0697954 20.3544727,18.2093862 C20.7658989,17.830682 21,17.2970336 21,16.7378481 L21,14.4550312 C21,14.2705891 21.1015407,14.1011257 21.2641801,14.0141355 L22.2641801,13.47927 C22.5076801,13.3490303 22.8106559,13.4408459 22.9408957,13.6843458 Z M15.1790994,0.597109507 L26.5468234,6.67731302 C27.2773233,7.06803219 27.55277,7.9769598 27.1620508,8.70745965 C27.0222613,8.96881407 26.8081779,9.18289751 26.5468234,9.32268698 L15.1790994,15.4028905 C14.4424115,15.7969194 13.5575885,15.7969194 12.8209006,15.4028905 L1.45317656,9.32268698 C0.722676707,8.93196781 0.447230047,8.0230402 0.837949221,7.29254035 C0.977738687,7.03118593 1.19182213,6.81710249 1.45317656,6.67731302 L12.8209006,0.597109507 C13.5575885,0.203080576 14.4424115,0.203080576 15.1790994,0.597109507 Z M12.5850807,2.99135176 L4.0450786,7.55910434 C3.80157865,7.68934406 3.70976309,7.99231993 3.84000282,8.23581988 C3.88659931,8.32293802 3.95796046,8.39429917 4.0450786,8.44089566 L12.5850807,13.0086482 C13.4691061,13.481483 14.5308939,13.481483 15.4149193,13.0086482 L23.9549214,8.44089566 C24.1984214,8.31065594 24.2902369,8.00768007 24.1599972,7.76418012 C24.1134007,7.67706198 24.0420395,7.60570083 23.9549214,7.55910434 L15.4149193,2.99135176 C14.5308939,2.51851704 13.4691061,2.51851704 12.5850807,2.99135176 Z" id="Combined-Shape" fill="#B1B7C0" fill-rule="nonzero"></path>
                    <path d="M26,8 C26,7.44771525 25.5522847,7 25,7 L15,7 C14.4477153,7 14,7.44771525 14,8 C14,8.55228475 14.4477153,9 15,9 L24,9 L24,18 C24,18.5522847 24.4477153,19 25,19 C25.5522847,19 26,18.5522847 26,18 L26,8 Z" id="Combined-Shape" fill="#B15DCB"></path>
                </g>
            </g>
        </g>
    </g>
</svg>