<svg width="28" height="28" xmlns="http://www.w3.org/2000/svg"><g fill="none" fill-rule="evenodd"><path d="M-1-1h30v30H-1z"/><g transform="translate(.5 .5)" stroke="#43474F" stroke-width="1.5"><rect x="10.75" y=".75" width="5.5" height="9" rx="2.75"/><rect fill="#B15DCB" x=".75" y="18.25" width="25.5" height="8" rx="2"/><path d="M13.5 3.75c-5.385 0-9.75 4.365-9.75 9.75v12c0 .414.336.75.75.75h18a.75.75 0 0 0 .75-.75v-12c0-5.385-4.365-9.75-9.75-9.75z" fill="#D387EB"/><path d="M11 18.25A2.75 2.75 0 0 0 8.25 21v2.5c0 .138.112.25.25.25h10a.25.25 0 0 0 .25-.25V21A2.75 2.75 0 0 0 16 18.25h-5z" fill="#B15DCB"/><rect transform="rotate(45 .904 18.718)" x="2.25" y="2.25" width="3.5" height="3.5" rx="1" fill="#EADCF3"/></g></g></svg>