<?xml version="1.0" encoding="UTF-8"?>
<svg width="32px" height="32px" viewBox="0 0 32 32" version="1.1" xmlns="http://www.w3.org/2000/svg" xmlns:xlink="http://www.w3.org/1999/xlink">
    <title>Magenta - Mastery Orientation</title>
    <g id="Icons---Product" stroke="none" stroke-width="1" fill="none" fill-rule="evenodd">
        <g id="2.5-First-Order-Capacities" transform="translate(-150.000000, -540.000000)">
            <g id="Magenta---Mastery-Orientation" transform="translate(150.000000, 540.000000)">
                <rect id="Rectangle-3" x="0" y="0" width="32" height="32"></rect>
                <g id="Group-30" transform="translate(1.000000, 4.000000)" fill="#B15DCB" fill-rule="nonzero">
                    <path d="M15,10 C17.7614237,10 20,12.2385763 20,15 C20,17.7614237 17.7614237,20 15,20 C12.2385763,20 10,17.7614237 10,15 C10,12.2385763 12.2385763,10 15,10 Z M15,12 C13.3431458,12 12,13.3431458 12,15 C12,16.6568542 13.3431458,18 15,18 C16.6568542,18 18,16.6568542 18,15 C18,13.3431458 16.6568542,12 15,12 Z M29,14 C29.5522847,14 30,14.4477153 30,15 C30,15.5522847 29.5522847,16 29,16 L27,16 C26.4477153,16 26,15.5522847 26,15 C26,14.4477153 26.4477153,14 27,14 L29,14 Z M3,14 C3.55228475,14 4,14.4477153 4,15 C4,15.5522847 3.55228475,16 3,16 L1,16 C0.44771525,16 0,15.5522847 0,15 C0,14.4477153 0.44771525,14 1,14 L3,14 Z M5.51471863,4.10050506 L6.92893219,5.51471863 C7.31945648,5.90524292 7.31945648,6.5384079 6.92893219,6.92893219 C6.5384079,7.31945648 5.90524292,7.31945648 5.51471863,6.92893219 L4.10050506,5.51471863 C3.70998077,5.12419433 3.70998077,4.49102936 4.10050506,4.10050506 C4.49102936,3.70998077 5.12419433,3.70998077 5.51471863,4.10050506 Z M25.8994949,4.10050506 C26.2900192,4.49102936 26.2900192,5.12419433 25.8994949,5.51471863 L24.4852814,6.92893219 C24.0947571,7.31945648 23.4615921,7.31945648 23.0710678,6.92893219 C22.6805435,6.5384079 22.6805435,5.90524292 23.0710678,5.51471863 L24.4852814,4.10050506 C24.8758057,3.70998077 25.5089706,3.70998077 25.8994949,4.10050506 Z M15,0 C15.5522847,-1.01453063e-16 16,0.44771525 16,1 L16,3 C16,3.55228475 15.5522847,4 15,4 C14.4477153,4 14,3.55228475 14,3 L14,1 C14,0.44771525 14.4477153,1.01453063e-16 15,0 Z" id="Combined-Shape"></path>
                </g>
                <g id="Group-30" transform="translate(6.514719, 9.514719) rotate(-45.000000) translate(-6.514719, -9.514719) translate(5.514719, 7.514719)"></g>
                <g id="Group-29" transform="translate(16.000000, 19.000000) rotate(-270.000000) translate(-16.000000, -19.000000) translate(15.000000, 4.000000)"></g>
                <g id="Group-29" transform="translate(25.485281, 9.514719) rotate(-315.000000) translate(-25.485281, -9.514719) translate(24.485281, 7.514719)"></g>
                <g id="Group-4" transform="translate(6.000000, 9.000000)" fill="#B1B7C0" fill-rule="nonzero">
                    <path d="M10,20 C15.5228475,20 20,15.5228475 20,10 C20,4.4771525 15.5228475,0 10,0 C4.4771525,0 0,4.4771525 0,10 C0,15.5228475 4.4771525,20 10,20 Z M10,18 C5.581722,18 2,14.418278 2,10 C2,5.581722 5.581722,2 10,2 C14.418278,2 18,5.581722 18,10 C18,14.418278 14.418278,18 10,18 Z" id="Oval-21"></path>
                </g>
            </g>
        </g>
    </g>
</svg>