<?xml version="1.0" encoding="UTF-8"?>
<svg width="32px" height="32px" viewBox="0 0 32 32" version="1.1" xmlns="http://www.w3.org/2000/svg" xmlns:xlink="http://www.w3.org/1999/xlink">
    <title>Magenta - Positive Identity</title>
    <g id="Icons---Product" stroke="none" stroke-width="1" fill="none" fill-rule="evenodd">
        <g id="2.5-First-Order-Capacities" transform="translate(-150.000000, -589.000000)">
            <g id="Magenta---Positive-Identity" transform="translate(150.000000, 589.000000)">
                <rect id="bg" x="0" y="0" width="32" height="32"></rect>
                <g id="shape" transform="translate(2.000000, 5.000000)" fill-rule="nonzero">
                    <path d="M27,3 C27.5522847,3 28,3.44771525 28,4 L28,4 L28,18 C28,18.5522847 27.5522847,19 27,19 L27,19 L24.5,19 C24.2238576,19 24,18.7761424 24,18.5 L24,18.5 L24,17.5 C24,17.2238576 24.2238576,17 24.5,17 L24.5,17 L25.5,17 C25.7761424,17 26,16.7761424 26,16.5 L26,16.5 L26,5.5 C26,5.22385763 25.7761424,5 25.5,5 L25.5,5 L24.5,5 C24.2238576,5 24,4.77614237 24,4.5 L24,4.5 L24,3.5 C24,3.22385763 24.2238576,3 24.5,3 L24.5,3 Z M3.5,3 C3.77614237,3 4,3.22385763 4,3.5 L4,3.5 L4,4.5 C4,4.77614237 3.77614237,5 3.5,5 L3.5,5 L2.5,5 C2.22385763,5 2,5.22385763 2,5.5 L2,5.5 L2,16.5 C2,16.7761424 2.22385763,17 2.5,17 L2.5,17 L3.5,17 C3.77614237,17 4,17.2238576 4,17.5 L4,17.5 L4,18.5 C4,18.7761424 3.77614237,19 3.5,19 L3.5,19 L1,19 C0.44771525,19 7.99360578e-15,18.5522847 7.99360578e-15,18 L7.99360578e-15,18 L9.76996262e-15,4 C9.76996262e-15,3.44771525 0.44771525,3 1,3 L1,3 Z M14,11 C16.209139,11 18,12.790861 18,15 C18,15.5522847 17.5522847,16 17,16 L11,16 C10.4871642,16 10.0644928,15.6139598 10.0067277,15.1166211 L10,15 C10,12.790861 11.790861,11 14,11 Z M14,6 C15.1045695,6 16,6.8954305 16,8 C16,9.1045695 15.1045695,10 14,10 C12.8954305,10 12,9.1045695 12,8 C12,6.8954305 12.8954305,6 14,6 Z" id="Combined-Shape" fill="#B15DCB"></path>
                    <path d="M8,3 L8,19 C8,19.5522847 8.44771525,20 9,20 L19,20 C19.5522847,20 20,19.5522847 20,19 L20,3 C20,2.44771525 19.5522847,2 19,2 L9,2 C8.44771525,2 8,2.44771525 8,3 Z M7,0 L21,0 C21.5522847,0 22,0.44771525 22,1 L22,21 C22,21.5522847 21.5522847,22 21,22 L7,22 C6.44771525,22 6,21.5522847 6,21 L6,1 C6,0.44771525 6.44771525,0 7,0 Z" id="Rectangle" fill="#B1B7C0"></path>
                </g>
            </g>
        </g>
    </g>
</svg>