<?xml version="1.0" encoding="UTF-8"?>
<svg width="32px" height="32px" viewBox="0 0 32 32" version="1.1" xmlns="http://www.w3.org/2000/svg" xmlns:xlink="http://www.w3.org/1999/xlink">
    <title>Magenta - Self-Management</title>
    <g id="Icons---Product" stroke="none" stroke-width="1" fill="none" fill-rule="evenodd">
        <g id="2.5-First-Order-Capacities" transform="translate(-150.000000, -687.000000)">
            <g id="Magenta---Self-Management" transform="translate(150.000000, 687.000000)">
                <rect id="bg" x="0" y="0" width="32" height="32"></rect>
                <g id="shape" transform="translate(3.000000, 5.000000)" fill-rule="nonzero">
                    <path d="M25.4491796,20.6275393 L17.6266964,1.13651859 L17.6266964,1.13651859 C17.5323164,0.90135497 17.35218,0.710790086 17.1226943,0.603338578 C16.6225227,0.369144534 16.0272018,0.584761917 15.7930077,1.08493348 L12.5529876,8.00469082 C12.4244996,8.27910436 12.4273634,8.59697629 12.5607745,8.86903035 L13.2038633,10.1804272 C13.2768136,10.3291885 13.4565463,10.3906455 13.6053076,10.3176952 C13.666676,10.2876011 13.7159281,10.2374534 13.7449117,10.1755528 L16.2375769,4.85193201 C16.3312546,4.65186339 16.5693829,4.56561643 16.7694516,4.65929405 C16.8612459,4.70227465 16.9333004,4.77850061 16.9710524,4.87256606 L22.6566891,19.0392775 C22.8006822,19.3980602 22.6265608,19.8056405 22.2677781,19.9496336 C22.1848801,19.9829036 22.0963806,20 22.0070556,20 L18.8213066,20 C18.5451642,20 18.3213066,20.2238576 18.3213066,20.5 C18.3213066,20.5763184 18.3387772,20.6516241 18.3723797,20.7201468 L18.7255286,21.4402937 C18.893525,21.7828745 19.2418272,22 19.6233824,22 L24.5211317,22 C25.0734164,22 25.5211317,21.5522847 25.5211317,21 C25.5211317,20.8723928 25.4967083,20.7459649 25.4491796,20.6275393 Z" id="Combined-Shape" fill="#B15DCB"></path>
                    <path d="M8.64348538,10.9195405 L3.79090327,19.4013647 C3.68120002,19.5931149 3.74771223,19.8374912 3.93946245,19.9471945 C3.99994457,19.9817972 4.0684168,20 4.13809776,20 L13.150036,20 C13.3709499,20 13.550036,19.8209139 13.550036,19.6 C13.550036,19.5389453 13.5360595,19.4787007 13.5091775,19.4238825 L9.3498214,10.9420583 C9.2525544,10.7437099 9.01291078,10.6617673 8.8145624,10.7590343 C8.74277729,10.7942366 8.68318855,10.8501434 8.64348538,10.9195405 Z M9.98371401,7.69227956 L16.4349617,20.847765 C16.6294957,21.2444618 16.4656104,21.7237491 16.0689136,21.918283 C15.9592772,21.9720471 15.8387881,22 15.7166787,22 L1.37936592,22 C0.937538121,22 0.57936592,21.6418278 0.57936592,21.2 C0.57936592,21.0606381 0.61577144,20.9236936 0.68497694,20.8027294 L8.21787398,7.63598498 L8.21787398,7.63598498 C8.49213211,7.15660942 9.10307292,6.9903289 9.58244848,7.26458703 C9.75594131,7.36384495 9.89570824,7.5128168 9.98371401,7.69227956 Z" id="Rectangle-12" fill="#B1B7C0"></path>
                </g>
            </g>
        </g>
    </g>
</svg>