<?xml version="1.0" encoding="UTF-8"?>
<svg width="32px" height="32px" viewBox="0 0 32 32" version="1.1" xmlns="http://www.w3.org/2000/svg" xmlns:xlink="http://www.w3.org/1999/xlink">
    <title>Magenta - Social Skills</title>
    <g id="Icons---Product" stroke="none" stroke-width="1" fill="none" fill-rule="evenodd">
        <g id="2.5-First-Order-Capacities" transform="translate(-149.000000, -736.000000)">
            <g id="Magenta---Social-Skills" transform="translate(149.000000, 736.000000)">
                <rect id="bg" x="0" y="0" width="32" height="32"></rect>
                <g id="shape" transform="translate(3.000000, 3.000000)" fill-rule="nonzero">
                    <path d="M26,9 L26,20.3284271 C26,21.2516113 25.2516113,22 24.3284271,22 L23.8994949,22 C23.1038455,22 22.3407837,22.3160705 21.7781746,22.8786797 L20.8284271,23.8284271 C19.8186147,24.8382395 18.1813853,24.8382395 17.1715729,23.8284271 L16.2218254,22.8786797 C15.6592163,22.3160705 14.8961545,22 14.1005051,22 L8.98445282,22 C7.33618504,22 6,20.663815 6,19.0155472 L6,17.4343575 C6,17.1097791 6.26312271,16.8466564 6.58770103,16.8466564 C6.74197418,16.8466564 6.89006114,16.9073176 7,17.0155472 L7.70154543,17.7061856 C7.89248063,17.8941522 8,18.150878 8,18.4188103 L8,19 C8,19.5522847 8.44771525,20 9,20 L16.1715729,20 L16.1715729,20 L18.2928932,22.1213203 C18.6834175,22.5118446 19.3165825,22.5118446 19.7071068,22.1213203 L21.8284271,20 L21.8284271,20 L23,20 C23.5522847,20 24,19.5522847 24,19 L24,9 C24,8.44771525 23.5522847,8 23,8 C22.6515899,8 22.3031799,8 21.9547698,8 C21.9547698,8 21.9547698,8 21.9547698,8 C21.7267768,8 21.5405418,7.81787208 21.5354584,7.58993578 L21.5096396,6.43223364 C21.5044332,6.19878203 21.6894625,6.0053115 21.9229141,6.00010511 C21.926056,6.00003504 21.9291985,6 21.9323411,6 C21.9323411,6 21.9323411,6 21.9323411,6 C22.2882274,6 22.6441137,6 23,6 C24.6568542,6 26,7.34314575 26,9 Z" id="Combined-Shape" fill="#B1B7C0"></path>
                    <path d="M11.0523181,14.1575162 L16.8811779,8.41927876 L16.8811779,8.41927876 C18.3729407,6.95070867 18.3729407,4.58287602 16.881224,3.11435128 C15.3718675,1.62855713 12.9123036,1.62855713 11.4030909,3.11430592 L10.7015454,3.8049443 C10.3123272,4.18811132 9.68767284,4.18811132 9.29845457,3.8049443 L8.59690914,3.11430592 L8.59690914,3.11430592 C7.08770403,1.62856469 4.6280272,1.62856469 3.11882209,3.11430592 C1.6270593,4.58287602 1.6270593,6.95070867 3.11882209,8.41927876 L8.94768186,14.1575162 C9.53150926,14.7322667 10.4684907,14.7322667 11.0523181,14.1575162 Z M10,1.68905646 C12.2876416,-0.563018819 15.9964792,-0.563018819 18.2842688,1.68905646 C20.5719104,3.94113173 20.5719104,7.59245295 18.2842688,9.84452823 L11.4030909,16.6187232 C10.6246543,17.3850573 9.37534568,17.3850573 8.59690914,16.6187232 L1.71573123,9.84452823 L1.71573123,9.84452823 C-0.571910412,7.59245295 -0.571910412,3.94113173 1.71573123,1.68905646 C4.00337288,-0.563018819 7.71235835,-0.563018819 10,1.68905646 Z" id="Shape" fill="#B15DCB"></path>
                </g>
            </g>
        </g>
    </g>
</svg>